<?xml version="1.0" encoding="utf-8"?>
<!-- Generator: Adobe Illustrator 16.0.3, SVG Export Plug-In . SVG Version: 6.00 Build 0)  -->
<!DOCTYPE svg PUBLIC "-//W3C//DTD SVG 1.1//EN" "http://www.w3.org/Graphics/SVG/1.1/DTD/svg11.dtd">
<svg version="1.1" id="Layer_1" xmlns="http://www.w3.org/2000/svg" xmlns:xlink="http://www.w3.org/1999/xlink" x="0px" y="0px"
	 width="100%" height="100%" viewBox="0 0 662.846 464.411" enable-background="new 0 0 662.846 464.411"
	 xml:space="preserve">
<path fill-rule="evenodd" clip-rule="evenodd" fill="#ED1C24" d="M99.608,456.093h205.95v0.007c3.376,0.015,7.181-0.31,10.081-1.643
	c2.742-1.261,4.676-3.493,4.563-7.354l-0.003-0.099h-0.001c-0.016-0.373-0.069-0.763-0.155-1.156l-0.016-0.083
	c-0.082-0.349-0.192-0.699-0.332-1.036c-0.727-1.758-2.705-3.158-4.868-3.213c-1.556-0.04-2.691,0.444-3.699,1.588
	c0.271-0.079-0.136-0.123,0.854-0.123c0.989,0,3.047,1.366,3.047,3.049c0,1.682-1.365,3.044-3.047,3.044
	c-1.19,0-2.342-0.574-2.931-1.499c-2.404-3.776,0.987-8.353,5.828-8.247c3.16,0.08,5.809,2.069,6.844,4.569
	c0.181,0.438,0.326,0.9,0.436,1.37c0.011,0.035,0.022,0.07,0.031,0.108c0.108,0.492,0.176,1.008,0.198,1.534h-0.001l0.001,0.013
	l0.004,0.111v0.005c0.147,4.938-2.331,7.796-5.842,9.409c-3.243,1.493-7.363,1.855-10.991,1.84v0.002H95.055l-3.815,0.009
	l-6.368,0.013c-11.494,0.019-26.813,0.616-39.973,0.599c-1.224-0.002-2.36-0.073-3.408-0.203c-8.021-1.008-14.933-7.604-14.92-15.9
	c0-0.645,0.041-1.288,0.122-1.926l0-0.005h0l0.012-0.101l0.001-0.004h-0.001c0.141-1.056,0.38-2.054,0.708-2.984l0.025-0.066
	c0.157-0.439,0.334-0.865,0.528-1.276c-0.411,0.194-0.836,0.372-1.276,0.528l-0.066,0.025c-0.932,0.328-1.929,0.567-2.984,0.708
	v-0.001l-0.005,0.001l-0.1,0.013v-0.001l-0.004,0.001c-0.639,0.08-1.282,0.121-1.927,0.122c-8.296,0.012-14.892-6.9-15.899-14.921
	c-0.131-1.048-0.202-2.185-0.204-3.408c-0.023-16.679,0.579-33.359,0.62-50.044l0-112.46h0.002
	c-0.015-3.629,0.348-7.749,1.839-10.992c1.614-3.51,4.472-5.988,9.411-5.841h0.004l0.111,0.004l0.013,0.001v-0.001
	c0.526,0.023,1.042,0.09,1.535,0.198c0.038,0.009,0.073,0.02,0.108,0.031c0.47,0.109,0.931,0.254,1.371,0.437
	c2.499,1.033,4.488,3.683,4.569,6.843c0.104,4.842-4.471,8.233-8.247,5.828c-0.926-0.59-1.5-1.74-1.5-2.931
	c0-1.683,1.363-3.048,3.045-3.048s3.047,2.059,3.047,3.048c0,0.99-0.043,0.583-0.122,0.854c1.143-1.008,1.627-2.144,1.587-3.699
	c-0.055-2.164-1.455-4.141-3.213-4.869c-0.337-0.139-0.687-0.25-1.036-0.331l-0.083-0.016c-0.395-0.087-0.783-0.141-1.157-0.155
	v-0.001l-0.099-0.004c-3.86-0.112-6.093,1.822-7.353,4.563c-1.334,2.9-1.657,6.705-1.642,10.081h0.007v108.217
	c0,4.452,0.537,9.57,1.642,13.83c0.751,2.892,1.851,5.665,3.483,7.987l0.004,0.007c0.328,0.467,0.671,0.905,1.024,1.305
	c0.357,0.402,0.737,0.781,1.138,1.131c3.063,2.658,7.762,3.536,10.087-0.468c0.929-1.6,1.092-3.74,0.384-5.466
	c-0.277-0.672-0.721-1.324-1.304-1.762c0.09,0.296,0.138-0.122,0.138,0.935s-1.451,3.239-3.239,3.239
	c-2.842,0-4.422-3.485-2.655-5.667c5.017-6.194,12.645,3.522,8.944,9.895c-3.105,5.346-9.681,4.818-13.937,1.123
	c-0.48-0.418-0.936-0.873-1.365-1.358c-0.434-0.488-0.832-0.996-1.195-1.514l0,0l-0.005-0.007c-1.245-1.771-2.205-3.761-2.95-5.854
	c-0.002,1.635-0.003,3.331-0.005,5.072c-0.005,6.393,2.683,13.1,10.073,15.574c-7.158,2.571-10.67,8.781-10.663,16.285
	c0.001,1.073,0.067,2.113,0.194,3.115c0.855,6.811,6.416,12.806,13.492,12.797c0.545,0,1.09-0.034,1.628-0.102v-0.001l0.095-0.013
	v-0.001c0.873-0.115,1.706-0.315,2.492-0.594l0.054-0.017c0.754-0.269,1.465-0.611,2.127-1.018c3.455-2.122,5.501-5.99,5.588-10.416
	v-0.002l0.003-0.093v-0.013c0.007-0.673-0.046-1.346-0.155-2.007c-0.106-0.646-0.272-1.287-0.497-1.913
	c-1.116-3.122-3.655-5.615-7.339-6.379c-0.864-0.179-1.728-0.233-2.566-0.177c-1.806,0.125-3.485,0.79-4.807,1.886
	c-1.311,1.087-2.271,2.604-2.652,4.446l0,0.004h0c-0.163,0.79-0.223,1.646-0.159,2.56l0.001,0.022h0.001
	c0.032,0.445,0.098,0.872,0.194,1.276c0.096,0.403,0.217,0.773,0.361,1.11c0.737,1.726,2.121,2.837,3.687,3.286
	c0.202,0.058,0.386,0.103,0.551,0.133c1.133,0.209,2.297,0.087,3.255-0.388c0.781-0.387,1.426-1.021,1.794-1.917
	c-0.328,0.111-0.677,0.172-1.042,0.172c-1.789,0-3.238-1.45-3.238-3.239c0-1.788,1.45-3.238,3.238-3.238
	c3.174,0,4.15,3.3,3.675,5.879c-0.046,0.248-0.098,0.468-0.151,0.661c-0.528,1.841-1.718,3.116-3.206,3.853
	c-1.43,0.708-3.133,0.897-4.761,0.597c-0.282-0.052-0.544-0.112-0.779-0.18c-2.231-0.641-4.203-2.222-5.249-4.671
	c-0.204-0.476-0.371-0.977-0.495-1.498c-0.123-0.521-0.209-1.076-0.25-1.665h0l0-0.005L13,421.737
	c-0.078-1.131-0.002-2.205,0.206-3.213l0.001,0.001c0.501-2.414,1.758-4.402,3.475-5.826c1.708-1.416,3.87-2.273,6.192-2.434
	c1.042-0.072,2.122-0.002,3.209,0.223c4.59,0.951,7.752,4.052,9.141,7.933c0.266,0.745,0.467,1.527,0.6,2.34
	c0.13,0.792,0.192,1.608,0.182,2.439v0.008l-0.001,0.066v0.037c-0.027,1.364-0.213,2.688-0.548,3.941
	c4.007-8.051,7.818-18.722-5.179-22.176c5.196-4.626,13.866-1.656,16.521,4.521c3.439-4.302,10.574-5.199,12.276-4.587
	c0.17,0.066,0.26,0.156,0.327,0.325c0.61,1.701-0.285,8.839-4.588,12.276c6.178,2.655,9.147,11.325,4.522,16.521
	c-3.454-12.996-14.124-9.186-22.177-5.18c1.254-0.334,2.576-0.521,3.942-0.547l0.036-0.001l0.066-0.001h0.008
	c0.831-0.01,1.648,0.052,2.439,0.182c0.813,0.134,1.596,0.335,2.34,0.601c3.88,1.388,6.981,4.551,7.933,9.14
	c0.225,1.089,0.295,2.168,0.223,3.211c-0.161,2.321-1.018,4.483-2.434,6.19c-1.424,1.717-3.412,2.974-5.825,3.476v0.001
	c-1.006,0.208-2.081,0.284-3.213,0.206l-0.027-0.001l-0.005-0.002v0.002c-0.589-0.043-1.145-0.129-1.665-0.252
	c-0.521-0.123-1.022-0.29-1.499-0.495c-2.449-1.045-4.03-3.017-4.67-5.248c-0.067-0.235-0.127-0.497-0.18-0.778
	c-0.301-1.629-0.111-3.332,0.597-4.762c0.737-1.488,2.012-2.678,3.853-3.205c0.192-0.055,0.413-0.106,0.662-0.152
	c2.578-0.476,5.879,0.502,5.879,3.675c0,1.788-1.451,3.238-3.24,3.239c-1.789-0.001-3.239-1.451-3.239-3.239
	c0-0.364,0.061-0.714,0.172-1.041c-0.895,0.367-1.53,1.014-1.917,1.794c-0.474,0.958-0.597,2.123-0.388,3.256
	c0.031,0.164,0.075,0.35,0.133,0.551c0.449,1.565,1.561,2.949,3.286,3.686c0.337,0.145,0.708,0.266,1.11,0.361
	c0.404,0.096,0.831,0.162,1.277,0.193l0,0.001l0.022,0.002c0.914,0.063,1.77,0.004,2.559-0.159v0.001l0.004-0.001
	c1.842-0.382,3.359-1.341,4.446-2.652c1.096-1.32,1.761-3,1.886-4.807c0.058-0.839,0.002-1.701-0.177-2.566
	c-0.764-3.683-3.257-6.224-6.379-7.339c-0.626-0.225-1.268-0.392-1.913-0.497c-0.661-0.108-1.334-0.161-2.007-0.155l-0.013,0.002
	l-0.092,0.002h-0.002c-4.425,0.087-8.293,2.133-10.414,5.588c-0.407,0.662-0.75,1.373-1.02,2.128l-0.017,0.054
	c-0.277,0.786-0.478,1.618-0.593,2.491h-0.001l-0.012,0.096h-0.002c-0.066,0.537-0.102,1.081-0.102,1.627
	c-0.009,7.076,5.987,12.637,12.797,13.492c1.001,0.127,2.042,0.193,3.115,0.194c7.504,0.007,13.714-3.506,16.286-10.663
	c2.474,7.39,9.181,10.079,15.574,10.073c1.742-0.001,3.438-0.003,5.072-0.005c-2.094-0.745-4.083-1.705-5.854-2.95l-0.007-0.004
	c-0.518-0.365-1.025-0.763-1.513-1.196c-0.486-0.429-0.942-0.885-1.359-1.364c-3.694-4.257-4.223-10.832,1.123-13.937
	c6.372-3.703,16.089,3.929,9.895,8.943c-2.182,1.768-5.667,0.187-5.667-2.655c0-1.787,2.183-3.239,3.239-3.239
	c1.057,0,0.64,0.049,0.936,0.138c-0.438-0.582-1.089-1.026-1.761-1.304c-1.727-0.709-3.866-0.545-5.466,0.385
	c-4.003,2.324-3.126,7.024-0.467,10.087c0.348,0.4,0.728,0.78,1.13,1.137c0.4,0.354,0.838,0.696,1.306,1.024l0.006,0.004
	c2.322,1.633,5.096,2.731,7.987,3.482C89.775,455.596,95.005,456.093,99.608,456.093L99.608,456.093z M99.608,8.318h205.95V8.312
	c3.376-0.014,7.181,0.31,10.081,1.643c2.742,1.261,4.676,3.493,4.563,7.354l-0.003,0.099h-0.001
	c-0.016,0.374-0.069,0.763-0.155,1.156l-0.016,0.083c-0.082,0.349-0.192,0.699-0.332,1.036c-0.727,1.758-2.705,3.158-4.868,3.213
	c-1.556,0.04-2.691-0.444-3.699-1.588c0.271,0.079-0.136,0.123,0.854,0.123c0.989,0,3.047-1.366,3.047-3.048
	c0-1.683-1.365-3.045-3.047-3.045c-1.19,0-2.342,0.574-2.931,1.5c-2.404,3.775,0.987,8.352,5.828,8.246
	c3.16-0.08,5.809-2.069,6.844-4.569c0.181-0.438,0.326-0.9,0.436-1.37c0.011-0.035,0.022-0.07,0.031-0.107
	c0.108-0.493,0.176-1.009,0.198-1.535h-0.001l0.001-0.013l0.004-0.111v-0.005c0.147-4.938-2.331-7.796-5.842-9.409
	c-3.243-1.493-7.363-1.855-10.991-1.84V6.121H95.055L91.24,6.112L84.872,6.1C73.378,6.081,58.059,5.483,44.899,5.502
	c-1.224,0.001-2.36,0.072-3.408,0.202c-8.021,1.008-14.933,7.604-14.92,15.9c0,0.645,0.041,1.288,0.122,1.926l0,0.006h0l0.012,0.1
	l0.001,0.004h-0.001c0.141,1.056,0.38,2.054,0.708,2.984l0.025,0.066c0.157,0.439,0.334,0.865,0.528,1.276
	c-0.411-0.194-0.836-0.372-1.276-0.528l-0.066-0.025c-0.932-0.328-1.929-0.567-2.984-0.708v0.001l-0.005-0.001l-0.1-0.013v0.001
	l-0.004-0.001c-0.639-0.08-1.282-0.121-1.927-0.122c-8.296-0.012-14.892,6.9-15.899,14.921c-0.131,1.048-0.202,2.185-0.204,3.408
	c-0.023,16.679,0.579,33.359,0.62,50.044l0,112.46h0.002c-0.015,3.629,0.348,7.748,1.839,10.992c1.614,3.51,4.472,5.988,9.411,5.841
	h0.004l0.111-0.004l0.013-0.001v0.001c0.526-0.022,1.042-0.089,1.535-0.198c0.038-0.008,0.073-0.02,0.108-0.031
	c0.47-0.109,0.931-0.254,1.371-0.436c2.499-1.035,4.488-3.684,4.569-6.844c0.104-4.842-4.471-8.232-8.247-5.828
	c-0.926,0.59-1.5,1.74-1.5,2.931c0,1.683,1.363,3.048,3.045,3.048s3.047-2.059,3.047-3.048s-0.043-0.583-0.122-0.853
	c1.143,1.008,1.627,2.143,1.587,3.698c-0.055,2.164-1.455,4.141-3.213,4.869c-0.337,0.139-0.687,0.25-1.036,0.331l-0.083,0.016
	c-0.395,0.088-0.783,0.141-1.157,0.155v0.001l-0.099,0.004c-3.86,0.112-6.093-1.822-7.353-4.563
	c-1.334-2.9-1.657-6.706-1.642-10.082h0.007V99.187c0-4.452,0.537-9.57,1.642-13.83c0.751-2.892,1.851-5.665,3.483-7.987
	l0.004-0.007c0.328-0.467,0.671-0.904,1.024-1.305c0.357-0.402,0.737-0.781,1.138-1.131c3.063-2.658,7.762-3.536,10.087,0.468
	c0.929,1.6,1.092,3.74,0.384,5.466c-0.277,0.672-0.721,1.324-1.304,1.763c0.09-0.296,0.138,0.121,0.138-0.936
	c0-1.056-1.451-3.239-3.239-3.239c-2.842,0-4.422,3.486-2.655,5.667c5.017,6.194,12.645-3.522,8.944-9.895
	c-3.105-5.346-9.681-4.818-13.937-1.123c-0.48,0.418-0.936,0.873-1.365,1.358c-0.434,0.488-0.832,0.996-1.195,1.514l0,0
	l-0.005,0.007c-1.245,1.771-2.205,3.762-2.95,5.854C8.511,80.196,8.51,78.5,8.508,76.759c-0.005-6.393,2.683-13.1,10.073-15.574
	c-7.158-2.571-10.67-8.781-10.663-16.285c0.001-1.073,0.067-2.113,0.194-3.114c0.855-6.812,6.416-12.807,13.492-12.798
	c0.545,0,1.09,0.034,1.628,0.102v0.001l0.095,0.013v0.001c0.873,0.115,1.706,0.315,2.492,0.594l0.054,0.017
	c0.754,0.269,1.465,0.612,2.127,1.018c3.455,2.122,5.501,5.99,5.588,10.416v0.002l0.003,0.093v0.013
	c0.007,0.673-0.046,1.346-0.155,2.007c-0.106,0.646-0.272,1.287-0.497,1.913c-1.116,3.122-3.655,5.615-7.339,6.379
	c-0.864,0.179-1.728,0.234-2.566,0.177c-1.806-0.125-3.485-0.79-4.807-1.886c-1.311-1.087-2.271-2.604-2.652-4.446l0-0.004h0
	c-0.163-0.79-0.223-1.646-0.159-2.56l0.001-0.022h0.001c0.032-0.445,0.098-0.872,0.194-1.276c0.096-0.403,0.217-0.773,0.361-1.11
	c0.737-1.726,2.121-2.837,3.687-3.286c0.202-0.058,0.386-0.103,0.551-0.133c1.133-0.209,2.297-0.087,3.255,0.388
	c0.781,0.387,1.426,1.021,1.794,1.917c-0.328-0.111-0.677-0.172-1.042-0.172c-1.789,0-3.238,1.45-3.238,3.239
	c0,1.788,1.45,3.238,3.238,3.238c3.174,0,4.15-3.3,3.675-5.878c-0.046-0.249-0.098-0.469-0.151-0.662
	c-0.528-1.84-1.718-3.116-3.206-3.852c-1.43-0.709-3.133-0.898-4.761-0.598c-0.282,0.052-0.544,0.112-0.779,0.18
	c-2.231,0.641-4.203,2.222-5.249,4.671c-0.204,0.476-0.371,0.977-0.495,1.498c-0.123,0.521-0.209,1.076-0.25,1.665h0l0,0.005
	L13,42.674c-0.078,1.131-0.002,2.205,0.206,3.213l0.001-0.001c0.501,2.414,1.758,4.402,3.475,5.826
	c1.708,1.416,3.87,2.273,6.192,2.435c1.042,0.071,2.122,0.001,3.209-0.224c4.59-0.951,7.752-4.052,9.141-7.933
	c0.266-0.745,0.467-1.527,0.6-2.34c0.13-0.792,0.192-1.608,0.182-2.439v-0.008l-0.001-0.066V41.1
	c-0.027-1.364-0.213-2.688-0.548-3.941c4.007,8.052,7.818,18.722-5.179,22.176c5.196,4.626,13.866,1.656,16.521-4.521
	c3.439,4.302,10.574,5.199,12.276,4.587c0.17-0.066,0.26-0.156,0.327-0.325c0.61-1.701-0.285-8.839-4.588-12.276
	c6.178-2.655,9.147-11.325,4.522-16.521c-3.454,12.996-14.124,9.187-22.177,5.18c1.254,0.334,2.576,0.521,3.942,0.547l0.036,0.001
	l0.066,0.002h0.008c0.831,0.009,1.648-0.053,2.439-0.183c0.813-0.134,1.596-0.335,2.34-0.601c3.88-1.387,6.981-4.551,7.933-9.14
	c0.225-1.089,0.295-2.168,0.223-3.211c-0.161-2.321-1.018-4.483-2.434-6.19c-1.424-1.717-3.412-2.974-5.825-3.475v-0.002
	c-1.006-0.208-2.081-0.284-3.213-0.206l-0.027,0.001l-0.005,0.002v-0.002c-0.589,0.043-1.145,0.129-1.665,0.252
	c-0.521,0.124-1.022,0.29-1.499,0.495c-2.449,1.045-4.03,3.017-4.67,5.248c-0.067,0.235-0.127,0.497-0.18,0.778
	c-0.301,1.629-0.111,3.332,0.597,4.762c0.737,1.488,2.012,2.678,3.853,3.205c0.192,0.055,0.413,0.106,0.662,0.152
	c2.578,0.476,5.879-0.502,5.879-3.675c0-1.788-1.451-3.238-3.24-3.239c-1.789,0.001-3.239,1.451-3.239,3.239
	c0,0.364,0.061,0.714,0.172,1.041c-0.895-0.367-1.53-1.014-1.917-1.794c-0.474-0.958-0.597-2.123-0.388-3.256
	c0.031-0.164,0.075-0.35,0.133-0.551c0.449-1.565,1.561-2.949,3.286-3.686c0.337-0.145,0.708-0.266,1.11-0.361
	c0.404-0.096,0.831-0.162,1.277-0.193l0-0.001l0.022-0.002c0.914-0.063,1.77-0.004,2.559,0.159v-0.001l0.004,0.001
	c1.842,0.382,3.359,1.341,4.446,2.652c1.096,1.32,1.761,3,1.886,4.807c0.058,0.839,0.002,1.701-0.177,2.566
	c-0.764,3.684-3.257,6.224-6.379,7.339c-0.626,0.225-1.268,0.392-1.913,0.497c-0.661,0.108-1.334,0.161-2.007,0.155l-0.013-0.002
	l-0.092-0.002h-0.002c-4.425-0.087-8.293-2.133-10.414-5.588c-0.407-0.662-0.75-1.373-1.02-2.128l-0.017-0.054
	c-0.277-0.786-0.478-1.618-0.593-2.491h-0.001l-0.012-0.096h-0.002c-0.066-0.537-0.102-1.081-0.102-1.627
	c-0.009-7.076,5.987-12.637,12.797-13.492c1.001-0.127,2.042-0.193,3.115-0.194c7.504-0.007,13.714,3.506,16.286,10.663
	c2.474-7.39,9.181-10.079,15.574-10.073c1.742,0.001,3.438,0.003,5.072,0.005c-2.094,0.745-4.083,1.705-5.854,2.951l-0.007,0.003
	c-0.518,0.365-1.025,0.763-1.513,1.196c-0.486,0.429-0.942,0.885-1.359,1.364c-3.694,4.257-4.223,10.832,1.123,13.937
	c6.372,3.703,16.089-3.929,9.895-8.943c-2.182-1.768-5.667-0.187-5.667,2.655c0,1.787,2.183,3.239,3.239,3.239
	c1.057,0,0.64-0.049,0.936-0.138c-0.438,0.583-1.089,1.026-1.761,1.304c-1.727,0.709-3.866,0.545-5.466-0.385
	c-4.003-2.324-3.126-7.024-0.467-10.087c0.348-0.4,0.728-0.78,1.13-1.137c0.4-0.354,0.838-0.696,1.306-1.024l0.006-0.004
	c2.322-1.633,5.096-2.731,7.987-3.482C89.775,8.815,95.005,8.318,99.608,8.318z M3.736,3.734v0.002L3.735,3.735
	c-0.117,6.153,1.729,9.723,4.722,11.551C5.111,15.85,2.188,18.354,0,21.084c8.418,7.283,13.31-0.02,22.382,1.387l0.043,0.044
	l0.054-0.029h0.001l0.001,0.001v-0.001l0.001-0.001h-0.001l0,0l0.001-0.001h0.001l0-0.001l0,0.001l0,0l0.001,0.001l-0.001-0.001
	v-0.002l0.031-0.056l-0.047-0.046C21.065,13.31,28.366,8.417,21.084,0c-2.729,2.187-5.232,5.109-5.796,8.454
	C13.459,5.464,9.893,3.614,3.736,3.734z M563.236,456.093H357.287v0.007c-3.377,0.015-7.181-0.31-10.081-1.643
	c-2.742-1.261-4.677-3.493-4.563-7.354l0.004-0.099l0,0c0.016-0.373,0.069-0.763,0.155-1.156l0.017-0.083
	c0.081-0.349,0.192-0.699,0.331-1.036c0.728-1.758,2.706-3.158,4.868-3.213c1.557-0.04,2.691,0.444,3.699,1.588
	c-0.271-0.079,0.137-0.123-0.854-0.123c-0.988,0-3.047,1.366-3.047,3.049c0,1.682,1.365,3.044,3.047,3.044
	c1.191,0,2.343-0.574,2.932-1.499c2.403-3.776-0.987-8.353-5.828-8.247c-3.16,0.08-5.81,2.069-6.844,4.569
	c-0.182,0.438-0.326,0.9-0.437,1.37c-0.011,0.035-0.022,0.07-0.03,0.108c-0.108,0.492-0.176,1.008-0.199,1.534h0.002l-0.002,0.013
	l-0.004,0.111v0.005c-0.147,4.938,2.332,7.796,5.842,9.409c3.243,1.493,7.363,1.855,10.992,1.84v0.002H567.79l3.815,0.009
	l6.368,0.013c11.493,0.019,26.813,0.616,39.973,0.599c1.224-0.002,2.36-0.073,3.407-0.203c8.021-1.008,14.934-7.604,14.921-15.9
	c0-0.645-0.042-1.288-0.122-1.926v-0.005l0,0l-0.012-0.101l-0.002-0.004h0.002c-0.141-1.056-0.38-2.054-0.709-2.984l-0.024-0.066
	c-0.157-0.439-0.335-0.865-0.529-1.276c0.411,0.194,0.837,0.372,1.276,0.528l0.066,0.025c0.932,0.328,1.928,0.567,2.984,0.708
	v-0.001l0.005,0.001l0.1,0.013v-0.001l0.005,0.001c0.638,0.08,1.281,0.121,1.926,0.122c8.296,0.012,14.893-6.9,15.899-14.921
	c0.132-1.048,0.202-2.185,0.204-3.408c0.022-16.679-0.579-33.359-0.62-50.044l0.001-112.46h-0.002
	c0.015-3.629-0.348-7.749-1.84-10.992c-1.613-3.51-4.473-5.988-9.41-5.841h-0.004l-0.111,0.004l-0.013,0.001v-0.001
	c-0.526,0.023-1.042,0.09-1.535,0.198c-0.038,0.009-0.073,0.02-0.108,0.031c-0.47,0.109-0.931,0.254-1.371,0.437
	c-2.498,1.033-4.488,3.683-4.568,6.843c-0.104,4.842,4.471,8.233,8.246,5.828c0.926-0.59,1.5-1.74,1.5-2.931
	c0-1.683-1.362-3.048-3.045-3.048c-1.682,0-3.047,2.059-3.047,3.048c0,0.99,0.043,0.583,0.121,0.854
	c-1.143-1.008-1.627-2.144-1.587-3.699c0.056-2.164,1.455-4.141,3.214-4.869c0.336-0.139,0.686-0.25,1.035-0.331l0.082-0.016
	c0.395-0.087,0.783-0.141,1.158-0.155v-0.001l0.098-0.004c3.86-0.112,6.094,1.822,7.354,4.563c1.334,2.9,1.656,6.705,1.643,10.081
	h-0.008v108.217c0,4.452-0.536,9.57-1.642,13.83c-0.751,2.892-1.851,5.665-3.483,7.987l-0.004,0.007
	c-0.327,0.467-0.67,0.905-1.023,1.305c-0.357,0.402-0.736,0.781-1.138,1.131c-3.063,2.658-7.762,3.536-10.087-0.468
	c-0.93-1.6-1.093-3.74-0.385-5.466c0.277-0.672,0.722-1.324,1.304-1.762c-0.089,0.296-0.138-0.122-0.138,0.935
	s1.451,3.239,3.24,3.239c2.842,0,4.421-3.485,2.655-5.667c-5.017-6.194-12.646,3.522-8.944,9.895
	c3.105,5.346,9.681,4.818,13.937,1.123c0.479-0.418,0.936-0.873,1.364-1.358c0.434-0.488,0.832-0.996,1.195-1.514l0,0l0.005-0.007
	c1.245-1.771,2.206-3.761,2.951-5.854c0.001,1.635,0.003,3.331,0.005,5.072c0.005,6.393-2.684,13.1-10.073,15.574
	c7.157,2.571,10.67,8.781,10.663,16.285c-0.002,1.073-0.068,2.113-0.195,3.115c-0.854,6.811-6.415,12.806-13.492,12.797
	c-0.545,0-1.09-0.034-1.627-0.102v-0.001l-0.096-0.013v-0.001c-0.872-0.115-1.705-0.315-2.492-0.594l-0.053-0.017
	c-0.755-0.269-1.466-0.611-2.128-1.018c-3.454-2.122-5.501-5.99-5.588-10.416v-0.002l-0.003-0.093v-0.013
	c-0.007-0.673,0.046-1.346,0.154-2.007c0.106-0.646,0.273-1.287,0.497-1.913c1.116-3.122,3.655-5.615,7.339-6.379
	c0.865-0.179,1.728-0.233,2.566-0.177c1.807,0.125,3.485,0.79,4.808,1.886c1.311,1.087,2.271,2.604,2.651,4.446l0.001,0.004h-0.001
	c0.164,0.79,0.223,1.646,0.159,2.56l-0.001,0.022h-0.001c-0.032,0.445-0.099,0.872-0.194,1.276c-0.096,0.403-0.217,0.773-0.36,1.11
	c-0.737,1.726-2.121,2.837-3.687,3.286c-0.201,0.058-0.387,0.103-0.551,0.133c-1.133,0.209-2.297,0.087-3.256-0.388
	c-0.781-0.387-1.426-1.021-1.794-1.917c0.327,0.111,0.677,0.172,1.042,0.172c1.788,0,3.238-1.45,3.238-3.239
	c0-1.788-1.45-3.238-3.238-3.238c-3.174,0-4.15,3.3-3.676,5.879c0.047,0.248,0.098,0.468,0.152,0.661
	c0.527,1.841,1.717,3.116,3.205,3.853c1.43,0.708,3.133,0.897,4.762,0.597c0.281-0.052,0.543-0.112,0.779-0.18
	c2.231-0.641,4.202-2.222,5.248-4.671c0.204-0.476,0.371-0.977,0.494-1.498c0.123-0.521,0.209-1.076,0.251-1.665h-0.001l0.001-0.005
	l0.003-0.027c0.078-1.131,0.001-2.205-0.207-3.213l-0.001,0.001c-0.501-2.414-1.759-4.402-3.475-5.826
	c-1.708-1.416-3.87-2.273-6.192-2.434c-1.041-0.072-2.121-0.002-3.209,0.223c-4.59,0.951-7.753,4.052-9.141,7.933
	c-0.266,0.745-0.467,1.527-0.6,2.34c-0.131,0.792-0.193,1.608-0.183,2.439v0.008l0.001,0.066v0.037
	c0.028,1.364,0.213,2.688,0.549,3.941c-4.008-8.051-7.818-18.722,5.179-22.176c-5.197-4.626-13.866-1.656-16.521,4.521
	c-3.439-4.302-10.574-5.199-12.277-4.587c-0.17,0.066-0.26,0.156-0.326,0.325c-0.609,1.701,0.285,8.839,4.588,12.276
	c-6.178,2.655-9.146,11.325-4.521,16.521c3.454-12.996,14.124-9.186,22.177-5.18c-1.254-0.334-2.576-0.521-3.942-0.547l-0.035-0.001
	l-0.066-0.001h-0.009c-0.831-0.01-1.647,0.052-2.438,0.182c-0.813,0.134-1.597,0.335-2.341,0.601
	c-3.88,1.388-6.981,4.551-7.933,9.14c-0.225,1.089-0.295,2.168-0.223,3.211c0.16,2.321,1.018,4.483,2.434,6.19
	c1.424,1.717,3.412,2.974,5.826,3.476v0.001c1.006,0.208,2.081,0.284,3.212,0.206l0.028-0.001l0.004-0.002v0.002
	c0.59-0.043,1.146-0.129,1.665-0.252c0.522-0.123,1.022-0.29,1.499-0.495c2.449-1.045,4.03-3.017,4.67-5.248
	c0.067-0.235,0.127-0.497,0.18-0.778c0.302-1.629,0.111-3.332-0.597-4.762c-0.737-1.488-2.012-2.678-3.853-3.205
	c-0.192-0.055-0.413-0.106-0.662-0.152c-2.578-0.476-5.878,0.502-5.878,3.675c0,1.788,1.45,3.238,3.239,3.239
	c1.789-0.001,3.239-1.451,3.239-3.239c0-0.364-0.062-0.714-0.173-1.041c0.895,0.367,1.531,1.014,1.918,1.794
	c0.474,0.958,0.597,2.123,0.387,3.256c-0.031,0.164-0.074,0.35-0.132,0.551c-0.45,1.565-1.562,2.949-3.286,3.686
	c-0.338,0.145-0.708,0.266-1.111,0.361c-0.404,0.096-0.83,0.162-1.276,0.193l0.001,0.001l-0.023,0.002
	c-0.914,0.063-1.77,0.004-2.559-0.159v0.001l-0.004-0.001c-1.843-0.382-3.359-1.341-4.447-2.652c-1.096-1.32-1.76-3-1.885-4.807
	c-0.059-0.839-0.002-1.701,0.176-2.566c0.764-3.683,3.258-6.224,6.379-7.339c0.627-0.225,1.268-0.392,1.914-0.497
	c0.66-0.108,1.334-0.161,2.006-0.155l0.014,0.002l0.092,0.002h0.002c4.426,0.087,8.293,2.133,10.415,5.588
	c0.407,0.662,0.75,1.373,1.02,2.128l0.017,0.054c0.277,0.786,0.478,1.618,0.594,2.491l0,0l0.012,0.096h0.002
	c0.067,0.537,0.102,1.081,0.102,1.627c0.01,7.076-5.986,12.637-12.797,13.492c-1.002,0.127-2.042,0.193-3.114,0.194
	c-7.505,0.007-13.715-3.506-16.286-10.663c-2.475,7.39-9.181,10.079-15.574,10.073c-1.742-0.001-3.438-0.003-5.072-0.005
	c2.094-0.745,4.084-1.705,5.855-2.95l0.006-0.004c0.518-0.365,1.025-0.763,1.514-1.196c0.486-0.429,0.941-0.885,1.359-1.364
	c3.693-4.257,4.223-10.832-1.123-13.937c-6.372-3.703-16.089,3.929-9.896,8.943c2.182,1.768,5.667,0.187,5.667-2.655
	c0-1.787-2.183-3.239-3.238-3.239c-1.057,0-0.641,0.049-0.936,0.138c0.438-0.582,1.09-1.026,1.761-1.304
	c1.728-0.709,3.867-0.545,5.467,0.385c4.003,2.324,3.127,7.024,0.468,10.087c-0.349,0.4-0.729,0.78-1.131,1.137
	c-0.399,0.354-0.838,0.696-1.305,1.024l-0.007,0.004c-2.321,1.633-5.095,2.731-7.987,3.482
	C573.07,455.596,567.84,456.093,563.236,456.093z M659.109,460.677v-0.002V460.677c0.117-6.154-1.729-9.724-4.721-11.552
	c3.346-0.563,6.27-3.067,8.457-5.798c-8.419-7.283-13.311,0.021-22.383-1.387l-0.043-0.043l-0.054,0.028h-0.002l-0.001-0.001v0.001
	v0.001v0.001v-0.001v0.001h-0.002l0.001,0.001l-0.001-0.001l0,0l0,0l0,0v0.002l-0.03,0.056l0.046,0.046
	c1.402,9.07-5.897,13.963,1.385,22.38c2.729-2.187,5.231-5.109,5.795-8.454C649.387,458.947,652.952,460.798,659.109,460.677z
	 M563.236,8.318H357.287V8.312c-3.377-0.014-7.181,0.31-10.081,1.643c-2.742,1.261-4.677,3.493-4.563,7.354l0.004,0.099l0,0
	c0.016,0.374,0.069,0.763,0.155,1.156l0.017,0.083c0.081,0.349,0.192,0.699,0.331,1.036c0.728,1.758,2.706,3.158,4.868,3.213
	c1.557,0.04,2.691-0.444,3.699-1.588c-0.271,0.079,0.137,0.123-0.854,0.123c-0.988,0-3.047-1.366-3.047-3.048
	c0-1.683,1.365-3.045,3.047-3.045c1.191,0,2.343,0.574,2.932,1.5c2.403,3.775-0.987,8.352-5.828,8.246
	c-3.16-0.08-5.81-2.069-6.844-4.569c-0.182-0.438-0.326-0.9-0.437-1.37c-0.011-0.035-0.022-0.07-0.03-0.107
	c-0.108-0.493-0.176-1.009-0.199-1.535h0.002l-0.002-0.013l-0.004-0.111v-0.005c-0.147-4.938,2.332-7.796,5.842-9.409
	c3.243-1.493,7.363-1.855,10.992-1.84V6.121H567.79l3.815-0.009l6.368-0.013c11.493-0.019,26.813-0.616,39.973-0.598
	c1.224,0.001,2.36,0.072,3.407,0.202c8.021,1.008,14.934,7.604,14.921,15.9c0,0.645-0.042,1.288-0.122,1.926v0.006l0,0l-0.012,0.1
	l-0.002,0.004h0.002c-0.141,1.056-0.38,2.054-0.709,2.984l-0.024,0.066c-0.157,0.439-0.335,0.865-0.529,1.276
	c0.411-0.194,0.837-0.372,1.276-0.528l0.066-0.025c0.932-0.328,1.928-0.567,2.984-0.708v0.001l0.005-0.001l0.1-0.013v0.001
	l0.005-0.001c0.638-0.08,1.281-0.121,1.926-0.122c8.296-0.012,14.893,6.9,15.899,14.921c0.132,1.048,0.202,2.185,0.204,3.408
	c0.022,16.679-0.579,33.359-0.62,50.044l0.001,112.46h-0.002c0.015,3.629-0.348,7.748-1.84,10.992
	c-1.613,3.51-4.473,5.988-9.41,5.841h-0.004l-0.111-0.004l-0.013-0.001v0.001c-0.526-0.022-1.042-0.089-1.535-0.198
	c-0.038-0.008-0.073-0.02-0.108-0.031c-0.47-0.109-0.931-0.254-1.371-0.436c-2.498-1.035-4.488-3.684-4.568-6.844
	c-0.104-4.842,4.471-8.232,8.246-5.828c0.926,0.59,1.5,1.74,1.5,2.931c0,1.683-1.362,3.048-3.045,3.048
	c-1.682,0-3.047-2.059-3.047-3.048s0.043-0.583,0.121-0.853c-1.143,1.008-1.627,2.143-1.587,3.698
	c0.056,2.164,1.455,4.141,3.214,4.869c0.336,0.139,0.686,0.25,1.035,0.331l0.082,0.016c0.395,0.088,0.783,0.141,1.158,0.155v0.001
	l0.098,0.004c3.86,0.112,6.094-1.822,7.354-4.563c1.334-2.9,1.656-6.706,1.643-10.082h-0.008V99.187c0-4.452-0.536-9.57-1.642-13.83
	c-0.751-2.892-1.851-5.665-3.483-7.987l-0.004-0.007c-0.327-0.467-0.67-0.904-1.023-1.305c-0.357-0.402-0.736-0.781-1.138-1.131
	c-3.063-2.658-7.762-3.536-10.087,0.468c-0.93,1.6-1.093,3.74-0.385,5.466c0.277,0.672,0.722,1.324,1.304,1.763
	c-0.089-0.296-0.138,0.121-0.138-0.936c0-1.056,1.451-3.239,3.24-3.239c2.842,0,4.421,3.486,2.655,5.667
	c-5.017,6.194-12.646-3.522-8.944-9.895c3.105-5.346,9.681-4.818,13.937-1.123c0.479,0.418,0.936,0.873,1.364,1.358
	c0.434,0.488,0.832,0.996,1.195,1.514l0,0l0.005,0.007c1.245,1.771,2.206,3.762,2.951,5.854c0.001-1.635,0.003-3.331,0.005-5.072
	c0.005-6.393-2.684-13.1-10.073-15.574c7.157-2.571,10.67-8.781,10.663-16.285c-0.002-1.073-0.068-2.113-0.195-3.114
	c-0.854-6.812-6.415-12.807-13.492-12.798c-0.545,0-1.09,0.034-1.627,0.102v0.001l-0.096,0.013v0.001
	c-0.872,0.115-1.705,0.315-2.492,0.594l-0.053,0.017c-0.755,0.269-1.466,0.612-2.128,1.018c-3.454,2.122-5.501,5.99-5.588,10.416
	v0.002l-0.003,0.093v0.013c-0.007,0.673,0.046,1.346,0.154,2.007c0.106,0.646,0.273,1.287,0.497,1.913
	c1.116,3.122,3.655,5.615,7.339,6.379c0.865,0.179,1.728,0.234,2.566,0.177c1.807-0.125,3.485-0.79,4.808-1.886
	c1.311-1.087,2.271-2.604,2.651-4.446l0.001-0.004h-0.001c0.164-0.79,0.223-1.646,0.159-2.56l-0.001-0.022h-0.001
	c-0.032-0.445-0.099-0.872-0.194-1.276c-0.096-0.403-0.217-0.773-0.36-1.11c-0.737-1.726-2.121-2.837-3.687-3.286
	c-0.201-0.058-0.387-0.103-0.551-0.133c-1.133-0.209-2.297-0.087-3.256,0.388c-0.781,0.387-1.426,1.021-1.794,1.917
	c0.327-0.111,0.677-0.172,1.042-0.172c1.788,0,3.238,1.45,3.238,3.239c0,1.788-1.45,3.238-3.238,3.238
	c-3.174,0-4.15-3.3-3.676-5.878c0.047-0.249,0.098-0.469,0.152-0.662c0.527-1.84,1.717-3.116,3.205-3.852
	c1.43-0.709,3.133-0.898,4.762-0.598c0.281,0.052,0.543,0.112,0.779,0.18c2.231,0.641,4.202,2.222,5.248,4.671
	c0.204,0.476,0.371,0.977,0.494,1.498c0.123,0.521,0.209,1.076,0.251,1.665h-0.001l0.001,0.005l0.003,0.027
	c0.078,1.131,0.001,2.205-0.207,3.213l-0.001-0.001c-0.501,2.414-1.759,4.402-3.475,5.826c-1.708,1.416-3.87,2.273-6.192,2.435
	c-1.041,0.071-2.121,0.001-3.209-0.224c-4.59-0.951-7.753-4.052-9.141-7.933c-0.266-0.745-0.467-1.527-0.6-2.34
	c-0.131-0.792-0.193-1.608-0.183-2.439v-0.008l0.001-0.066V41.1c0.028-1.364,0.213-2.688,0.549-3.941
	c-4.008,8.052-7.818,18.722,5.179,22.176c-5.197,4.626-13.866,1.656-16.521-4.521c-3.439,4.302-10.574,5.199-12.277,4.587
	c-0.17-0.066-0.26-0.156-0.326-0.325c-0.609-1.701,0.285-8.839,4.588-12.276c-6.178-2.655-9.146-11.325-4.521-16.521
	c3.454,12.996,14.124,9.187,22.177,5.18c-1.254,0.334-2.576,0.521-3.942,0.547l-0.035,0.001l-0.066,0.002h-0.009
	c-0.831,0.009-1.647-0.053-2.438-0.183c-0.813-0.134-1.597-0.335-2.341-0.601c-3.88-1.387-6.981-4.551-7.933-9.14
	c-0.225-1.089-0.295-2.168-0.223-3.211c0.16-2.321,1.018-4.483,2.434-6.19c1.424-1.717,3.412-2.974,5.826-3.475v-0.002
	c1.006-0.208,2.081-0.284,3.212-0.206l0.028,0.001l0.004,0.002v-0.002c0.59,0.043,1.146,0.129,1.665,0.252
	c0.522,0.124,1.022,0.29,1.499,0.495c2.449,1.045,4.03,3.017,4.67,5.248c0.067,0.235,0.127,0.497,0.18,0.778
	c0.302,1.629,0.111,3.332-0.597,4.762c-0.737,1.488-2.012,2.678-3.853,3.205c-0.192,0.055-0.413,0.106-0.662,0.152
	c-2.578,0.476-5.878-0.502-5.878-3.675c0-1.788,1.45-3.238,3.239-3.239c1.789,0.001,3.239,1.451,3.239,3.239
	c0,0.364-0.062,0.714-0.173,1.041c0.895-0.367,1.531-1.014,1.918-1.794c0.474-0.958,0.597-2.123,0.387-3.256
	c-0.031-0.164-0.074-0.35-0.132-0.551c-0.45-1.565-1.562-2.949-3.286-3.686c-0.338-0.145-0.708-0.266-1.111-0.361
	c-0.404-0.096-0.83-0.162-1.276-0.193l0.001-0.001l-0.023-0.002c-0.914-0.063-1.77-0.004-2.559,0.159v-0.001l-0.004,0.001
	c-1.843,0.382-3.359,1.341-4.447,2.652c-1.096,1.32-1.76,3-1.885,4.807c-0.059,0.839-0.002,1.701,0.176,2.566
	c0.764,3.684,3.258,6.224,6.379,7.339c0.627,0.225,1.268,0.392,1.914,0.497c0.66,0.108,1.334,0.161,2.006,0.155l0.014-0.002
	l0.092-0.002h0.002c4.426-0.087,8.293-2.133,10.415-5.588c0.407-0.662,0.75-1.373,1.02-2.128l0.017-0.054
	c0.277-0.786,0.478-1.618,0.594-2.491l0,0l0.012-0.096h0.002c0.067-0.537,0.102-1.081,0.102-1.627
	c0.01-7.076-5.986-12.637-12.797-13.492c-1.002-0.127-2.042-0.193-3.114-0.194c-7.505-0.007-13.715,3.506-16.286,10.663
	c-2.475-7.39-9.181-10.079-15.574-10.073c-1.742,0.001-3.438,0.003-5.072,0.005c2.094,0.745,4.084,1.705,5.855,2.951l0.006,0.003
	c0.518,0.365,1.025,0.763,1.514,1.196c0.486,0.429,0.941,0.885,1.359,1.364c3.693,4.257,4.223,10.832-1.123,13.937
	c-6.372,3.703-16.089-3.929-9.896-8.943c2.182-1.768,5.667-0.187,5.667,2.655c0,1.787-2.183,3.239-3.238,3.239
	c-1.057,0-0.641-0.049-0.936-0.138c0.438,0.583,1.09,1.026,1.761,1.304c1.728,0.709,3.867,0.545,5.467-0.385
	c4.003-2.324,3.127-7.024,0.468-10.087c-0.349-0.4-0.729-0.78-1.131-1.137c-0.399-0.354-0.838-0.696-1.305-1.024l-0.007-0.004
	c-2.321-1.633-5.095-2.731-7.987-3.482C573.07,8.815,567.84,8.318,563.236,8.318z M659.109,3.734v0.002V3.734
	c0.117,6.154-1.729,9.724-4.721,11.552c3.346,0.563,6.27,3.067,8.457,5.798c-8.419,7.283-13.311-0.02-22.383,1.387l-0.043,0.044
	l-0.054-0.029h-0.002l-0.001,0.001v-0.001v-0.001l0,0l0,0v-0.001h-0.002l0.001-0.001l-0.001,0.001l0,0v0.001v-0.001v-0.002
	l-0.03-0.056l0.046-0.046c1.402-9.07-5.897-13.963,1.385-22.38c2.729,2.187,5.231,5.109,5.795,8.454
	C649.387,5.464,652.952,3.614,659.109,3.734z M645.646,228.638c-1.97,0-3.567,1.598-3.567,3.567s1.598,3.567,3.567,3.567
	s3.567-1.598,3.567-3.567S647.615,228.638,645.646,228.638z M17.2,228.638c1.97,0,3.568,1.598,3.568,3.567s-1.598,3.567-3.568,3.567
	c-1.97,0-3.567-1.598-3.567-3.567S15.23,228.638,17.2,228.638z M327.855,17.199c0,1.97,1.598,3.567,3.567,3.567
	c1.97,0,3.568-1.598,3.568-3.567s-1.598-3.567-3.568-3.567C329.453,13.632,327.855,15.229,327.855,17.199z M327.855,447.212
	c0-1.97,1.598-3.567,3.567-3.567c1.97,0,3.568,1.598,3.568,3.567s-1.598,3.567-3.568,3.567
	C329.453,450.779,327.855,449.182,327.855,447.212z M3.736,460.677v-0.002l-0.001,0.001c-0.117-6.153,1.729-9.723,4.722-11.551
	c-3.346-0.563-6.27-3.067-8.457-5.798c8.418-7.283,13.31,0.021,22.382-1.387l0.043-0.043l0.054,0.028h0.001l0.001-0.001v0.001
	l0.001,0.001l-0.001,0.001v-0.001l0.001,0.001h0.001l0,0.001l0-0.001l0,0h0.001h-0.001v0.002l0.031,0.056l-0.047,0.046
	c-1.402,9.07,5.898,13.963-1.384,22.38c-2.729-2.187-5.232-5.109-5.796-8.454C13.459,458.947,9.893,460.798,3.736,460.677z"/>
</svg>
